<?xml version="1.0" encoding="UTF-8" standalone="no"?>
<!-- Created with Inkscape (http://www.inkscape.org/) -->

<svg
   xmlns:dc="http://purl.org/dc/elements/1.1/"
   xmlns:cc="http://creativecommons.org/ns#"
   xmlns:rdf="http://www.w3.org/1999/02/22-rdf-syntax-ns#"
   xmlns:svg="http://www.w3.org/2000/svg"
   xmlns="http://www.w3.org/2000/svg"
   xmlns:sodipodi="http://sodipodi.sourceforge.net/DTD/sodipodi-0.dtd"
   xmlns:inkscape="http://www.inkscape.org/namespaces/inkscape"
   width="16"
   height="16"
   id="svg2"
   version="1.1"
   inkscape:version="0.48.1 "
   sodipodi:docname="affirmit.svg"
   inkscape:export-filename="H:\logo.png"
   inkscape:export-xdpi="90"
   inkscape:export-ydpi="90">
  <defs
     id="defs4" />
  <sodipodi:namedview
     id="base"
     pagecolor="#ffffff"
     bordercolor="#666666"
     borderopacity="1.0"
     inkscape:pageopacity="0.0"
     inkscape:pageshadow="2"
     inkscape:zoom="1"
     inkscape:cx="18.094787"
     inkscape:cy="9.7471029"
     inkscape:document-units="px"
     inkscape:current-layer="text2985"
     showgrid="false"
     inkscape:window-width="1280"
     inkscape:window-height="753"
     inkscape:window-x="-4"
     inkscape:window-y="-4"
     inkscape:window-maximized="1"
     fit-margin-top="0"
     fit-margin-left="0"
     fit-margin-right="0"
     fit-margin-bottom="0" />
  <metadata
     id="metadata7">
    <rdf:RDF>
      <cc:Work
         rdf:about="">
        <dc:format>image/svg+xml</dc:format>
        <dc:type
           rdf:resource="http://purl.org/dc/dcmitype/StillImage" />
        <dc:title></dc:title>
      </cc:Work>
    </rdf:RDF>
  </metadata>
  <g
     inkscape:label="Layer 1"
     inkscape:groupmode="layer"
     id="layer1"
     transform="translate(-251.38743,-294.87189)">
    <g
       style="font-size:40px;font-style:normal;font-weight:normal;line-height:125%;letter-spacing:0px;word-spacing:0px;fill:#000000;fill-opacity:1;stroke:none;font-family:Sans"
       id="text2985">
      <path
         d="m 266.1667,298.1986 c -2e-5,0.0276 -0.0622,0.0553 -0.18663,0.083 -0.11061,0.0276 -0.20738,0.0553 -0.2903,0.083 -0.12444,0.0553 -0.2212,0.14515 -0.29031,0.26957 -1.47918,2.5298 -2.67495,4.86605 -3.58732,7.00877 -0.15208,0.35942 -0.22811,0.64281 -0.2281,0.85017 -1e-5,0.26266 0.0968,0.44928 0.2903,0.55987 0.11059,0.0691 0.26264,0.10368 0.4562,0.10368 0.41471,0 0.96766,-0.22118 1.65888,-0.66355 0.0415,-0.0276 0.083,-0.0415 0.12441,-0.0415 0.0553,0 0.083,0.0207 0.083,0.0622 -2e-5,0.0276 -0.0346,0.0622 -0.10368,0.10368 -0.55298,0.3456 -1.07138,0.60135 -1.5552,0.76723 -0.40091,0.13824 -0.77415,0.20736 -1.11974,0.20736 -0.66356,0 -0.99534,-0.26956 -0.99533,-0.8087 -1e-5,-0.30413 0.15897,-0.73267 0.47693,-1.28563 0.37324,-0.66355 0.87781,-1.61049 1.51373,-2.84083 -1e-5,0 -0.13135,0 -0.39399,0 -1.67271,0 -3.1657,0.0691 -4.47897,0.20736 -1.27182,0.85709 -2.28789,1.57594 -3.0482,2.15654 -0.87092,0.66355 -1.58285,1.33402 -2.1358,2.01139 -0.2212,0.26266 -0.35943,0.50458 -0.41472,0.72576 -0.0139,0.0691 -0.0415,0.10368 -0.083,0.10368 -0.0691,0 -0.10368,-0.0484 -0.10368,-0.14515 -1e-5,-0.083 0.0139,-0.21427 0.0415,-0.39398 0.0276,-0.17972 0.0415,-0.31796 0.0415,-0.41472 -0.0139,-0.15207 0.24882,-0.43546 0.78796,-0.85018 1.2718,-0.96768 2.79244,-2.04595 4.56192,-3.23482 -0.0553,-0.0415 -0.0968,-0.15896 -0.12441,-0.35251 -0.0276,-0.0968 -0.0415,-0.20044 -0.0415,-0.31104 -10e-6,-0.083 0.0207,-0.12441 0.0622,-0.12441 0.0691,0.0553 0.19352,0.11751 0.37325,0.18662 0.19352,0.0553 0.36632,0.0898 0.5184,0.10368 1.31327,-0.85708 2.30859,-1.49298 2.98598,-1.90771 0.56677,-0.33177 1.12665,-0.66355 1.67962,-0.99533 0.74647,-0.47001 1.25796,-0.85017 1.53446,-1.14048 0.083,-0.0968 0.17969,-0.14515 0.2903,-0.14515 0.0691,0 0.16587,0.006 0.29031,0.0207 0.13822,0.0139 0.2419,0.0207 0.31104,0.0207 -0.13826,0 0.19352,-0.0276 0.99533,-0.083 0.0691,10e-6 0.10368,0.0346 0.10368,0.10368 m -1.99066,0.68429 c -2e-5,-0.0553 -0.0207,-0.083 -0.0622,-0.083 -0.0276,0 -0.0691,0.0139 -0.12442,0.0415 -0.77416,0.41472 -1.79022,1.01607 -3.04819,1.80403 -0.76033,0.47002 -1.63815,1.03681 -2.63347,1.70035 1.43769,0.0968 2.83391,0.14516 4.18867,0.14515 1.11973,-2.21183 1.6796,-3.41452 1.67962,-3.60806"
         style="font-size:128px;font-variant:normal;font-stretch:normal;fill:#26606d;fill-opacity:1;font-family:LTZapfino One;-inkscape-font-specification:LTZapfino One"
         id="path3798"
         inkscape:connector-curvature="0" />
      <path
         d="m 267.22592,298.65803 c -10e-6,0.0553 -0.0276,0.083 -0.083,0.083 l 0,0 c -1e-5,10e-6 -0.0139,10e-6 -0.0415,0 -0.15208,10e-6 -0.29723,0.0553 -0.43545,0.1659 -0.89858,0.73267 -2.05288,2.71641 -3.46291,5.95123 -0.0139,0.0415 -0.0415,0.0622 -0.083,0.0622 -0.0553,0 -0.083,-0.0276 -0.083,-0.083 0,-0.0139 0,-0.0207 0,-0.0207 0.84326,-2.4192 1.63121,-4.32691 2.3639,-5.72314 0.22117,-0.42854 0.55294,-0.64281 0.99533,-0.64281 0.30411,0 0.55985,0.0415 0.76723,0.12441 0.0415,0.0139 0.0622,0.0415 0.0622,0.083 m -3.96058,7.63085 c 0,0.20736 -0.0691,0.38016 -0.20736,0.5184 -0.13824,0.13824 -0.29721,0.20736 -0.47692,0.20736 -0.26266,0 -0.39399,-0.13133 -0.39399,-0.39398 0,-0.55296 0.20736,-0.82943 0.62208,-0.82943 0.15207,0 0.26266,0.0553 0.33178,0.16588 0.083,0.0968 0.12441,0.20736 0.12441,0.33177"
         style="font-size:128px;font-variant:normal;font-stretch:normal;fill:#26606d;fill-opacity:1;font-family:LTZapfino One;-inkscape-font-specification:LTZapfino One"
         id="path3814"
         inkscape:connector-curvature="0" />
    </g>
  </g>
</svg>
