<?xml version="1.0" encoding="UTF-8" standalone="no"?>
<!-- Created with Inkscape (http://www.inkscape.org/) -->

<svg
   xmlns:dc="http://purl.org/dc/elements/1.1/"
   xmlns:cc="http://creativecommons.org/ns#"
   xmlns:rdf="http://www.w3.org/1999/02/22-rdf-syntax-ns#"
   xmlns:svg="http://www.w3.org/2000/svg"
   xmlns="http://www.w3.org/2000/svg"
   xmlns:sodipodi="http://sodipodi.sourceforge.net/DTD/sodipodi-0.dtd"
   xmlns:inkscape="http://www.inkscape.org/namespaces/inkscape"
   width="329.45001"
   height="172.28799"
   id="svg2"
   version="1.1"
   inkscape:version="0.48.1 "
   sodipodi:docname="logo.png"
   inkscape:export-filename="H:\logo.png"
   inkscape:export-xdpi="90"
   inkscape:export-ydpi="90">
  <defs
     id="defs4" />
  <sodipodi:namedview
     id="base"
     pagecolor="#ffffff"
     bordercolor="#666666"
     borderopacity="1.0"
     inkscape:pageopacity="0.0"
     inkscape:pageshadow="2"
     inkscape:zoom="1.2928274"
     inkscape:cx="126.51122"
     inkscape:cy="55.549487"
     inkscape:document-units="px"
     inkscape:current-layer="text2985"
     showgrid="false"
     inkscape:window-width="1280"
     inkscape:window-height="753"
     inkscape:window-x="1436"
     inkscape:window-y="100"
     inkscape:window-maximized="1"
     fit-margin-top="0"
     fit-margin-left="0"
     fit-margin-right="0"
     fit-margin-bottom="0" />
  <metadata
     id="metadata7">
    <rdf:RDF>
      <cc:Work
         rdf:about="">
        <dc:format>image/svg+xml</dc:format>
        <dc:type
           rdf:resource="http://purl.org/dc/dcmitype/StillImage" />
        <dc:title></dc:title>
      </cc:Work>
    </rdf:RDF>
  </metadata>
  <g
     inkscape:label="Layer 1"
     inkscape:groupmode="layer"
     id="layer1"
     transform="translate(-237.46543,-211.28789)">
    <g
       style="font-size:40px;font-style:normal;font-weight:normal;line-height:125%;letter-spacing:0px;word-spacing:0px;fill:#000000;fill-opacity:1;stroke:none;font-family:Sans"
       id="text2985">
      <path
         d="m 340.34743,251.22389 c -10e-5,0.17072 -0.3841,0.34139 -1.152,0.512 -0.68276,0.17072 -1.28009,0.34139 -1.792,0.512 -0.76809,0.34139 -1.36542,0.89605 -1.792,1.664 -9.13075,15.61604 -16.51207,30.03735 -22.144,43.264 -0.93873,2.21867 -1.40807,3.968 -1.408,5.248 -7e-5,1.62133 0.59727,2.77333 1.792,3.456 0.6826,0.42667 1.62126,0.64 2.816,0.64 2.55993,0 5.97326,-1.36533 10.24,-4.096 0.25592,-0.17066 0.51192,-0.256 0.768,-0.256 0.34125,0 0.51192,0.128 0.512,0.384 -8e-5,0.17067 -0.21342,0.384 -0.64,0.64 -3.41341,2.13333 -6.61341,3.712 -9.6,4.736 -2.47474,0.85333 -4.77873,1.28 -6.912,1.28 -4.09606,0 -6.14406,-1.664 -6.144,-4.992 -6e-5,-1.87733 0.98127,-4.52266 2.944,-7.936 2.30393,-4.09599 5.4186,-9.94131 9.344,-17.536 -7e-5,3e-5 -0.81074,3e-5 -2.432,0 -10.32539,3e-5 -19.54138,0.42669 -27.648,1.28 -7.8507,5.29069 -14.12269,9.72802 -18.816,13.312 -5.37602,4.09601 -9.77068,8.23467 -13.184,12.416 -1.36534,1.62133 -2.21867,3.11466 -2.56,4.48 -0.0853,0.42666 -0.25601,0.63999 -0.512,0.64 -0.42667,-1e-5 -0.64001,-0.29867 -0.64,-0.896 -1e-5,-0.512 0.0853,-1.32267 0.256,-2.432 0.17066,-1.10933 0.25599,-1.96267 0.256,-2.56 -0.0853,-0.93867 1.53599,-2.688 4.864,-5.248 7.85065,-5.97332 17.2373,-12.62932 28.16,-19.968 -0.34137,-0.25597 -0.59737,-0.98131 -0.768,-2.176 -0.17071,-0.59731 -0.25604,-1.2373 -0.256,-1.92 -4e-5,-0.51197 0.12796,-0.76797 0.384,-0.768 0.42663,0.34136 1.19463,0.72536 2.304,1.152 1.19462,0.34136 2.26129,0.55469 3.2,0.64 8.10661,-5.29063 14.25061,-9.21596 18.432,-11.776 3.4986,-2.04796 6.9546,-4.09596 10.368,-6.144 4.60792,-2.90128 7.76525,-5.24795 9.472,-7.04 0.51192,-0.59728 1.10925,-0.89595 1.792,-0.896 0.42658,5e-5 1.02391,0.0427 1.792,0.128 0.85325,0.0854 1.49325,0.12805 1.92,0.128 -0.85342,5e-5 1.19458,-0.17061 6.144,-0.512 0.42657,5e-5 0.6399,0.21339 0.64,0.64 m -12.288,4.224 c -8e-5,-0.34128 -0.12808,-0.51195 -0.384,-0.512 -0.17075,5e-5 -0.42675,0.0854 -0.768,0.256 -4.77874,2.56005 -11.05074,6.27204 -18.816,11.136 -4.69339,2.90137 -10.11205,6.40003 -16.256,10.496 8.87461,0.59736 17.49327,0.89603 25.856,0.896 6.91192,-13.65329 10.36792,-21.07729 10.368,-22.272"
         style="font-size:128px;font-variant:normal;font-stretch:normal;fill:#26606d;fill-opacity:1;font-family:LTZapfino One;-inkscape-font-specification:LTZapfino One"
         id="path3798"
         inkscape:connector-curvature="0" />
      <path
         d="m 407.44943,214.61589 c -0.59742,2.90142 -0.98142,6.31475 -1.152,10.24 -8e-5,0.34141 -0.17075,0.51208 -0.512,0.512 -0.25608,8e-5 -0.38408,-0.12792 -0.384,-0.384 l 0,0 0,-0.128 c -8e-5,-0.0853 0.0426,-0.55459 0.128,-1.408 0.17058,-0.93858 0.25592,-1.70658 0.256,-2.304 -8e-5,-3.07191 -2.43208,-4.65058 -7.296,-4.736 l -0.64,0 c -7e-5,9e-5 -0.0854,9e-5 -0.256,0 -3.4134,9e-5 -6.6134,1.06675 -9.6,3.2 -4.86406,3.49875 -9.81339,9.08808 -14.848,16.768 -3.41338,5.29073 -9.42937,16.59739 -18.048,33.92 -0.25603,0.51203 -1.92003,3.71203 -4.992,9.6 l 5.632,0 c 1.3653,2e-5 3.37063,2e-5 6.016,0 2.64529,0.0854 4.65062,0.12802 6.016,0.128 0.25596,2e-5 0.42662,0.12802 0.512,0.384 -4e-5,0.51202 -0.89604,0.76802 -2.688,0.768 -1.79204,2e-5 -4.60804,0.0427 -8.448,0.128 -3.7547,0.0854 -6.22936,0.12802 -7.424,0.128 l -0.256,0 c -4.35202,8.27735 -8.36268,15.65867 -12.032,22.144 -7.42401,13.14132 -15.40266,25.17331 -23.936,36.096 -11.43465,14.67728 -22.39997,25.64261 -32.896,32.896 -10.49595,7.33859 -20.2666,11.00792 -29.312,11.008 -3.58392,-8e-5 -6.48525,-0.72541 -8.704,-2.176 -2.73058,-1.70674 -4.43725,-4.35207 -5.12,-7.936 9e-5,-0.0854 9e-5,-0.2134 0,-0.384 9e-5,-0.3414 0.0854,-0.51207 0.256,-0.512 0.25609,-7e-5 0.42675,0.25593 0.512,0.768 0.42675,2.9866 2.04808,5.33326 4.864,7.04 2.13341,1.27992 4.82141,1.91992 8.064,1.92 9.21606,-8e-5 19.11472,-3.75474 29.696,-11.264 10.49603,-7.50939 20.52269,-18.09071 30.08,-31.744 6.05867,-8.78936 13.568,-21.50401 22.528,-38.144 4.09599,-7.59466 7.63732,-14.12265 10.624,-19.584 -2.64535,-0.0853 -6.14401,0.0854 -10.496,0.512 -0.0853,2e-5 -0.17068,0.0427 -0.256,0.128 -0.25601,2e-5 -0.38401,-0.12798 -0.384,-0.384 -1e-5,-0.76798 1.19466,-1.32264 3.584,-1.664 0.68265,-0.0853 1.79199,-0.12798 3.328,-0.128 0.34132,2e-5 0.85332,2e-5 1.536,0 0.68265,0.0854 1.15198,0.12802 1.408,0.128 l 2.048,0 c 8.87464,-15.95729 17.23729,-29.86661 25.088,-41.728 5.88795,-8.87459 11.60528,-15.70125 17.152,-20.48 5.0346,-4.35191 9.72793,-6.57057 14.08,-6.656 l 0.256,0 0.256,0 c 2.04792,9e-5 3.66925,0.38409 4.864,1.152 0.59725,0.34143 0.89592,0.89609 0.896,1.664 -8e-5,0.25609 -8e-5,0.42676 0,0.512"
         style="font-size:128px;font-variant:normal;font-stretch:normal;fill:#26606d;fill-opacity:1;font-family:LTZapfino One;-inkscape-font-specification:LTZapfino One"
         id="path3800"
         inkscape:connector-curvature="0" />
      <path
         d="m 431.94943,214.61589 c -0.59742,2.90142 -0.98142,6.31475 -1.152,10.24 -8e-5,0.34141 -0.17075,0.51208 -0.512,0.512 -0.25608,8e-5 -0.38408,-0.12792 -0.384,-0.384 l 0,0 0,-0.128 c -8e-5,-0.0853 0.0426,-0.55459 0.128,-1.408 0.17058,-0.93858 0.25592,-1.70658 0.256,-2.304 -8e-5,-3.07191 -2.43208,-4.65058 -7.296,-4.736 l -0.64,0 c -7e-5,9e-5 -0.0854,9e-5 -0.256,0 -3.4134,9e-5 -6.6134,1.06675 -9.6,3.2 -4.86406,3.49875 -9.81339,9.08808 -14.848,16.768 -3.41338,5.29073 -9.42937,16.59739 -18.048,33.92 -0.25603,0.51203 -1.92003,3.71203 -4.992,9.6 l 5.632,0 c 1.3653,2e-5 3.37063,2e-5 6.016,0 2.64529,0.0854 4.65062,0.12802 6.016,0.128 0.25596,2e-5 0.42662,0.12802 0.512,0.384 -4e-5,0.51202 -0.89604,0.76802 -2.688,0.768 -1.79204,2e-5 -4.60804,0.0427 -8.448,0.128 -3.7547,0.0854 -6.22936,0.12802 -7.424,0.128 l -0.256,0 c -4.35202,8.27735 -8.36268,15.65867 -12.032,22.144 -7.42401,13.14132 -15.40266,25.17331 -23.936,36.096 -11.43465,14.67728 -22.39997,25.64261 -32.896,32.896 -10.49595,7.33859 -20.2666,11.00792 -29.312,11.008 -3.58392,-8e-5 -6.48525,-0.72541 -8.704,-2.176 -2.73058,-1.70674 -4.43725,-4.35207 -5.12,-7.936 9e-5,-0.0854 9e-5,-0.2134 0,-0.384 9e-5,-0.3414 0.0854,-0.51207 0.256,-0.512 0.25609,-7e-5 0.42675,0.25593 0.512,0.768 0.42675,2.9866 2.04808,5.33326 4.864,7.04 2.13341,1.27992 4.82141,1.91992 8.064,1.92 9.21606,-8e-5 19.11472,-3.75474 29.696,-11.264 10.49603,-7.50939 20.52269,-18.09071 30.08,-31.744 6.05867,-8.78936 13.568,-21.50401 22.528,-38.144 4.09599,-7.59466 7.63732,-14.12265 10.624,-19.584 -2.64535,-0.0853 -6.14401,0.0854 -10.496,0.512 -0.0853,2e-5 -0.17068,0.0427 -0.256,0.128 -0.25601,2e-5 -0.38401,-0.12798 -0.384,-0.384 -1e-5,-0.76798 1.19466,-1.32264 3.584,-1.664 0.68265,-0.0853 1.79199,-0.12798 3.328,-0.128 0.34132,2e-5 0.85332,2e-5 1.536,0 0.68265,0.0854 1.15198,0.12802 1.408,0.128 l 2.048,0 c 8.87464,-15.95729 17.23729,-29.86661 25.088,-41.728 5.88795,-8.87459 11.60528,-15.70125 17.152,-20.48 5.0346,-4.35191 9.72793,-6.57057 14.08,-6.656 l 0.256,0 0.256,0 c 2.04792,9e-5 3.66925,0.38409 4.864,1.152 0.59725,0.34143 0.89592,0.89609 0.896,1.664 -8e-5,0.25609 -8e-5,0.42676 0,0.512"
         style="font-size:128px;font-variant:normal;font-stretch:normal;fill:#26606d;fill-opacity:1;font-family:LTZapfino One;-inkscape-font-specification:LTZapfino One"
         id="path3802"
         inkscape:connector-curvature="0" />
      <path
         d="m 406.52943,261.33589 c -3e-5,1.02404 -0.46937,2.04804 -1.408,3.072 -0.9387,1.02404 -1.92003,1.53604 -2.944,1.536 -1.02403,4e-5 -1.53603,-0.51196 -1.536,-1.536 -3e-5,-1.10929 0.42664,-2.17596 1.28,-3.2 0.8533,-1.02396 1.83464,-1.53595 2.944,-1.536 1.1093,5e-5 1.66397,0.55471 1.664,1.664 m 6.016,28.416 c -4e-5,0.25601 -0.0854,0.46935 -0.256,0.64 -4.18137,5.37601 -8.96003,9.81334 -14.336,13.312 -3.49869,2.304 -6.86935,3.456 -10.112,3.456 -3.75468,0 -5.63201,-1.45067 -5.632,-4.352 -10e-6,-1.36533 0.46932,-3.07199 1.408,-5.12 2.47465,-5.54665 5.50398,-10.87998 9.088,-16 1.10931,-1.62131 2.38931,-2.43197 3.84,-2.432 0.59731,3e-5 0.89598,0.25603 0.896,0.768 -2e-5,0.34136 -0.12802,0.72536 -0.384,1.152 -4.60802,7.16802 -7.68002,13.52534 -9.216,19.072 -0.25601,0.93867 -0.38401,1.664 -0.384,2.176 -10e-6,1.96267 1.02398,2.944 3.072,2.944 1.70665,0 3.62665,-0.59733 5.76,-1.792 6.05864,-3.328 11.2213,-7.93599 15.488,-13.824 0.17063,-0.25598 0.34129,-0.38398 0.512,-0.384 0.17063,2e-5 0.25596,0.12802 0.256,0.384"
         style="font-size:128px;font-variant:normal;font-stretch:normal;fill:#26606d;fill-opacity:1;font-family:LTZapfino One;-inkscape-font-specification:LTZapfino One"
         id="path3804"
         inkscape:connector-curvature="0" />
      <path
         d="m 434.51543,280.53589 c -4e-5,0.34136 -0.25604,0.76802 -0.768,1.28 -0.4267,0.51202 -1.0667,1.53602 -1.92,3.072 -0.1707,0.25602 -0.38404,0.38402 -0.64,0.384 -0.1707,2e-5 -0.2987,-0.0853 -0.384,-0.256 -0.85337,-1.45065 -2.26137,-2.17598 -4.224,-2.176 -2.2187,2e-5 -4.52269,1.10935 -6.912,3.328 -1.96269,1.87735 -3.96802,4.30935 -6.016,7.296 -1.96268,2.90134 -4.94935,7.38134 -8.96,13.44 -0.17068,0.256 -0.42667,0.384 -0.768,0.384 -0.85334,0 -1.28001,-0.64 -1.28,-1.92 -1e-5,-0.512 0.29866,-1.28 0.896,-2.304 1.53599,-2.64533 3.62666,-6.35733 6.272,-11.136 l 6.912,-12.16 c 0.34131,-0.68264 0.72531,-1.02397 1.152,-1.024 1.36531,3e-5 2.04798,0.76803 2.048,2.304 -2e-5,0.34136 -0.12802,0.72536 -0.384,1.152 -0.76802,1.36535 -1.74936,3.07202 -2.944,5.12 -0.25602,0.42668 -0.29869,0.64002 -0.128,0.64 0.25598,2e-5 0.46931,-0.12798 0.64,-0.384 1.79198,-1.87731 4.05331,-3.71198 6.784,-5.504 3.32797,-2.21864 5.93063,-3.32797 7.808,-3.328 1.8773,3e-5 2.81596,0.59736 2.816,1.792"
         style="font-size:128px;font-variant:normal;font-stretch:normal;fill:#26606d;fill-opacity:1;font-family:LTZapfino One;-inkscape-font-specification:LTZapfino One"
         id="path3806"
         inkscape:connector-curvature="0" />
      <path
         d="m 482.89143,293.33589 c -6e-5,0.34134 -0.12806,0.64001 -0.384,0.896 -6.14405,7.08267 -11.60538,11.776 -16.384,14.08 -1.62137,0.768 -3.15737,1.152 -4.608,1.152 -3.15737,0 -4.73603,-1.536 -4.736,-4.608 -3e-5,-1.19467 0.25597,-2.432 0.768,-3.712 1.53596,-2.81599 3.71196,-7.29599 6.528,-13.44 0.17063,-0.42665 0.25596,-0.85332 0.256,-1.28 -4e-5,-0.51198 -0.21337,-0.76798 -0.64,-0.768 -0.25604,2e-5 -0.76804,0.21335 -1.536,0.64 -2.4747,1.45068 -4.99203,3.54135 -7.552,6.272 -2.13336,2.30401 -3.62669,4.22401 -4.48,5.76 -0.76803,1.45067 -1.87736,3.328 -3.328,5.632 -0.42669,0.512 -0.81069,0.768 -1.152,0.768 -0.42669,0 -0.81069,-0.21333 -1.152,-0.64 -0.34135,-0.42667 -0.51202,-0.85333 -0.512,-1.28 -2e-5,-0.68266 0.17065,-1.28 0.512,-1.792 4.18131,-6.48532 6.27197,-11.00799 6.272,-13.568 -3e-5,-0.51198 -0.17069,-0.76798 -0.512,-0.768 -0.17069,2e-5 -0.42669,0.12802 -0.768,0.384 -5.29069,3.75468 -10.32535,9.47201 -15.104,17.152 -1.02401,1.70667 -1.79201,2.56 -2.304,2.56 -0.85334,0 -1.28001,-0.896 -1.28,-2.688 -1e-5,-0.68267 0.0853,-1.19466 0.256,-1.536 0.25599,-0.42666 4.47999,-7.72266 12.672,-21.888 0.42665,-0.76798 0.89598,-1.15197 1.408,-1.152 0.34131,3e-5 0.68264,0.17069 1.024,0.512 0.42664,0.34136 0.63998,0.81069 0.64,1.408 -2e-5,0.25602 -0.12802,0.68269 -0.384,1.28 -1.10936,2.64535 -2.60269,5.71735 -4.48,9.216 l -0.128,0.384 c -2e-5,10e-6 0.0853,-0.0853 0.256,-0.256 4.18131,-4.18132 7.76531,-7.25331 10.752,-9.216 0.68264,-0.42664 1.32264,-0.63998 1.92,-0.64 1.1093,2e-5 1.66397,0.59736 1.664,1.792 -3e-5,0.85335 -0.64003,2.56002 -1.92,5.12 -1.28003,2.47468 -1.92003,3.71201 -1.92,3.712 -3e-5,0.0854 0.0426,0.12801 0.128,0.128 0.17064,1e-5 0.29864,-0.0853 0.384,-0.256 2.6453,-2.90132 6.14396,-5.97332 10.496,-9.216 1.79196,-1.36531 3.28529,-2.04798 4.48,-2.048 1.36529,2e-5 2.04795,0.64002 2.048,1.92 -5e-5,0.42669 -0.17071,0.98135 -0.512,1.664 -1.19471,2.13335 -2.81604,5.29068 -4.864,9.472 -1.19471,2.56001 -2.26137,5.41867 -3.2,8.576 -0.25604,0.85333 -0.38404,1.62133 -0.384,2.304 -4e-5,1.70666 0.72529,2.56 2.176,2.56 0.68263,0 1.49329,-0.21334 2.432,-0.64 5.29062,-2.38933 10.62395,-6.95466 16,-13.696 0.34127,-0.42666 0.63994,-0.63999 0.896,-0.64 0.17061,1e-5 0.25594,0.12801 0.256,0.384"
         style="font-size:128px;font-variant:normal;font-stretch:normal;fill:#26606d;fill-opacity:1;font-family:LTZapfino One;-inkscape-font-specification:LTZapfino One"
         id="path3808"
         inkscape:connector-curvature="0" />
      <path
         d="m 518.40143,251.47989 c -5e-5,0.25605 -0.25605,0.46939 -0.768,0.64 -0.93871,0.25605 -1.83471,1.36538 -2.688,3.328 -1.79204,4.18138 -3.84004,8.57604 -6.144,13.184 -7.68003,15.44535 -14.20803,27.64801 -19.584,36.608 -1.10935,1.792 -2.60268,2.85866 -4.48,3.2 -1.28001,0.0853 -3.11468,0.21333 -5.504,0.384 -0.42668,0 -0.64001,-0.128 -0.64,-0.384 -1e-5,-0.34134 0.21332,-0.55467 0.64,-0.64 0.93866,-0.17067 1.83465,-0.81067 2.688,-1.92 5.63198,-7.85066 12.37331,-19.58398 20.224,-35.2 4.35196,-8.70396 6.52796,-13.99462 6.528,-15.872 -4e-5,-1.02395 -0.76804,-1.57862 -2.304,-1.664 -4e-5,5e-5 -0.46937,5e-5 -1.408,0 -2.56003,5e-5 -4.60803,0.12805 -6.144,0.384 -0.76803,0.0854 -1.15203,-0.0853 -1.152,-0.512 -3e-5,-0.51195 0.38397,-0.81061 1.152,-0.896 2.04797,-0.0853 5.24796,-0.29861 9.6,-0.64 5.37595,-0.51195 8.36262,-0.76795 8.96,-0.768 0.68262,5e-5 1.02395,0.25605 1.024,0.768"
         style="font-size:128px;font-variant:normal;font-stretch:normal;fill:#26606d;fill-opacity:1;font-family:LTZapfino One;-inkscape-font-specification:LTZapfino One"
         id="path3810"
         inkscape:connector-curvature="0" />
      <path
         d="m 536.67943,259.54389 c -4e-5,0.25605 -0.12804,0.42671 -0.384,0.512 -1.9627,0.59738 -3.3707,1.49338 -4.224,2.688 -4.18136,5.8027 -7.85069,11.60536 -11.008,17.408 3.32797,2e-5 8.23463,-0.0853 14.72,-0.256 0.42663,0.25602 0.63996,0.42669 0.64,0.512 -4e-5,0.51202 -0.21337,0.76802 -0.64,0.768 -6.8267,0.17069 -12.03203,0.42669 -15.616,0.768 -4.60802,8.78935 -6.91202,14.97601 -6.912,18.56 -2e-5,2.98667 1.40798,4.48 4.224,4.48 2.47464,0 5.88797,-1.28 10.24,-3.84 0.17064,-0.0853 0.3413,-0.128 0.512,-0.128 0.25597,0 0.38397,0.128 0.384,0.384 -3e-5,0.17067 -0.12803,0.34134 -0.384,0.512 -5.63203,3.584 -10.32535,5.376 -14.08,5.376 -4.09601,0 -6.14401,-1.96267 -6.144,-5.888 -10e-6,-3.24266 2.64532,-9.64265 7.936,-19.2 -1.36535,0.0854 -3.37068,0.21336 -6.016,0.384 -0.76801,2e-5 -1.15201,-0.21331 -1.152,-0.64 -10e-6,-0.51198 0.25599,-0.93864 0.768,-1.28 0.59732,-0.34131 1.36532,-0.51198 2.304,-0.512 l 5.248,0 c 2.90131,-5.11997 6.14397,-10.36796 9.728,-15.744 0.93864,-1.45062 2.0053,-2.47462 3.2,-3.072 2.98663,-1.53595 5.07729,-2.30395 6.272,-2.304 0.25596,5e-5 0.38396,0.17071 0.384,0.512"
         style="font-size:128px;font-variant:normal;font-stretch:normal;fill:#26606d;fill-opacity:1;font-family:LTZapfino One;-inkscape-font-specification:LTZapfino One"
         id="path3812"
         inkscape:connector-curvature="0" />
      <path
         d="m 566.91543,255.83189 c -4e-5,0.34138 -0.17071,0.51205 -0.512,0.512 l 0,0 c -4e-5,5e-5 -0.0854,5e-5 -0.256,0 -0.93871,5e-5 -1.83471,0.34138 -2.688,1.024 -5.5467,4.52271 -12.67203,16.76803 -21.376,36.736 -0.0854,0.25601 -0.25602,0.38401 -0.512,0.384 -0.34135,1e-5 -0.51202,-0.17066 -0.512,-0.512 -2e-5,-0.0853 -2e-5,-0.12799 0,-0.128 5.20531,-14.93331 10.0693,-26.7093 14.592,-35.328 1.3653,-2.64528 3.4133,-3.96795 6.144,-3.968 1.87729,5e-5 3.45596,0.25605 4.736,0.768 0.25596,0.0854 0.38396,0.25605 0.384,0.512 m -24.448,47.104 c -2e-5,1.28 -0.42669,2.34667 -1.28,3.2 -0.85335,0.85333 -1.83468,1.28 -2.944,1.28 -1.62135,0 -2.43201,-0.81067 -2.432,-2.432 -10e-6,-3.41333 1.27998,-5.12 3.84,-5.12 0.93865,0 1.62131,0.34134 2.048,1.024 0.51198,0.59734 0.76798,1.28 0.768,2.048"
         style="font-size:128px;font-variant:normal;font-stretch:normal;fill:#26606d;fill-opacity:1;font-family:LTZapfino One;-inkscape-font-specification:LTZapfino One"
         id="path3814"
         inkscape:connector-curvature="0" />
    </g>
  </g>
</svg>
